# xmcd CD database file
#
# Track frame offsets:
#	150
#	24452
#	40610
#	64872
#
# Disc length: 1074 seconds
#
# Revision: 0
# Processed by: cddbd v1.5.1PL2 Copyright (c) Steve Scherf et al.
# Submitted via: CDex 1.51
#
DISCID=29043004
DTITLE=faith - 2girls 〜in the sepiatone〜
DYEAR=2006
DGENRE=J-Pop
TTITLE0=2girls 〜in the sepiatone〜
TTITLE1=One Piece Of Door
TTITLE2=2girls 〜in the sepiatone〜 (instrumental)
TTITLE3=One Piece Of Door (instrumental)
EXTD=YEAR: 2006
EXTT0=
EXTT1=
EXTT2=
EXTT3=
PLAYORDER=
